<?xml version="1.0" encoding="UTF-8"?>
<!DOCTYPE svg PUBLIC "-//W3C//DTD SVG 1.1//EN" "http://www.w3.org/Graphics/SVG/1.1/DTD/svg11.dtd">
<svg xmlns="http://www.w3.org/2000/svg" version="1.1" width="150px" height="150px" style="shape-rendering:geometricPrecision; text-rendering:geometricPrecision; image-rendering:optimizeQuality; fill-rule:evenodd; clip-rule:evenodd" xmlns:xlink="http://www.w3.org/1999/xlink">
<g><path style="opacity:0.998" fill="#f9f9f9" d="M 88.5,47.5 C 91.2727,48.6572 94.2727,49.3239 97.5,49.5C 98.7804,50.9313 100.447,51.5979 102.5,51.5C 104.853,52.3403 106.853,53.6736 108.5,55.5C 108.738,57.4044 109.738,58.7377 111.5,59.5C 112.338,59.8417 112.672,60.5084 112.5,61.5C 112.66,63.153 113.326,64.4863 114.5,65.5C 115.945,68.9365 116.945,72.6032 117.5,76.5C 117.43,80.4248 118.097,84.0915 119.5,87.5C 119.5,89.5 119.5,91.5 119.5,93.5C 122.481,93.8176 124.815,92.8176 126.5,90.5C 128.027,90.573 129.027,89.9063 129.5,88.5C 129.328,87.5084 129.662,86.8417 130.5,86.5C 133.369,83.488 134.702,84.1547 134.5,88.5C 133.069,89.7804 132.402,91.4471 132.5,93.5C 131.92,95.7488 130.587,97.4154 128.5,98.5C 126.632,99.2632 124.965,100.263 123.5,101.5C 122.833,101.5 122.167,101.5 121.5,101.5C 119.307,103.522 118.307,106.189 118.5,109.5C 115.587,110.241 112.587,110.741 109.5,111C 108.595,114.656 106.595,117.49 103.5,119.5C 100.545,121.09 97.8784,120.757 95.5,118.5C 94.5975,115.609 94.2641,112.609 94.5,109.5C 85.8333,109.5 77.1667,109.5 68.5,109.5C 68.5674,110.959 68.2341,112.292 67.5,113.5C 65.8333,114.5 64.5,115.833 63.5,117.5C 60.1625,117.935 57.1625,117.268 54.5,115.5C 53.7814,113.236 53.448,110.903 53.5,108.5C 49.9581,108.813 46.6248,108.479 43.5,107.5C 40.691,105.103 37.3576,103.77 33.5,103.5C 32.2905,103.068 31.2905,102.401 30.5,101.5C 30.1667,100.5 29.5,99.8333 28.5,99.5C 26.8416,96.2105 25.1749,92.8772 23.5,89.5C 23.0198,86.5568 22.0198,83.8902 20.5,81.5C 19.5489,80.0813 19.2155,78.4147 19.5,76.5C 20.0102,73.6122 19.3435,71.2789 17.5,69.5C 17.1667,68.5 16.5,67.8333 15.5,67.5C 15.1667,66.5 14.5,65.8333 13.5,65.5C 10.8333,62.5 10.8333,59.5 13.5,56.5C 14.9063,56.0269 15.573,55.0269 15.5,53.5C 16.5,53.1667 17.1667,52.5 17.5,51.5C 19.2897,50.0027 21.4563,49.336 24,49.5C 26.8211,49.4078 29.3211,50.0744 31.5,51.5C 31.8333,52.5 32.5,53.1667 33.5,53.5C 34.5511,54.2223 35.2178,55.2223 35.5,56.5C 35.8084,60.3597 36.4751,64.0264 37.5,67.5C 37.1706,70.2282 37.8372,72.5615 39.5,74.5C 39.6043,76.9728 40.6043,77.6394 42.5,76.5C 43.7853,73.9795 44.4519,71.3128 44.5,68.5C 45.866,65.768 47.1993,63.1013 48.5,60.5C 49.9063,60.0269 50.573,59.0269 50.5,57.5C 51.9063,57.0269 52.573,56.0269 52.5,54.5C 53.6366,53.2112 54.9699,52.2112 56.5,51.5C 60.3948,50.5376 64.0615,49.2043 67.5,47.5C 74.5,46.1667 81.5,46.1667 88.5,47.5 Z"/></g>
<g><path style="opacity:0.039" fill="#2c2c2c" d="M 88.5,47.5 C 91.8291,47.2153 94.8291,47.8819 97.5,49.5C 94.2727,49.3239 91.2727,48.6572 88.5,47.5 Z"/></g>
<g><path style="opacity:0.451" fill="#6c6c6c" d="M 67.5,47.5 C 64.0615,49.2043 60.3948,50.5376 56.5,51.5C 59.5695,48.8101 63.2361,47.4767 67.5,47.5 Z"/></g>
<g><path style="opacity:0.125" fill="#525252" d="M 97.5,49.5 C 99.5529,49.4021 101.22,50.0687 102.5,51.5C 100.447,51.5979 98.7804,50.9313 97.5,49.5 Z"/></g>
<g><path style="opacity:0.004" fill="#1a1a1a" d="M 31.5,51.5 C 32.8333,51.5 33.5,52.1667 33.5,53.5C 32.5,53.1667 31.8333,52.5 31.5,51.5 Z"/></g>
<g><path style="opacity:0.192" fill="#3f3f3f" d="M 17.5,51.5 C 17.1667,52.5 16.5,53.1667 15.5,53.5C 15.5,52.1667 16.1667,51.5 17.5,51.5 Z"/></g>
<g><path style="opacity:0.157" fill="#4b4b4b" d="M 15.5,53.5 C 15.573,55.0269 14.9063,56.0269 13.5,56.5C 13.427,54.9731 14.0937,53.9731 15.5,53.5 Z"/></g>
<g><path style="opacity:0.098" fill="#383838" d="M 52.5,54.5 C 52.573,56.0269 51.9063,57.0269 50.5,57.5C 50.427,55.9731 51.0937,54.9731 52.5,54.5 Z"/></g>
<g><path style="opacity:0.353" fill="#696969" d="M 108.5,55.5 C 110.262,56.2623 111.262,57.5956 111.5,59.5C 109.738,58.7377 108.738,57.4044 108.5,55.5 Z"/></g>
<g><path style="opacity:0.078" fill="#444444" d="M 50.5,57.5 C 50.573,59.0269 49.9063,60.0269 48.5,60.5C 48.427,58.9731 49.0937,57.9731 50.5,57.5 Z"/></g>
<g><path style="opacity:0.341" fill="#696969" d="M 35.5,56.5 C 37.217,59.8448 37.8836,63.5115 37.5,67.5C 36.4751,64.0264 35.8084,60.3597 35.5,56.5 Z"/></g>
<g><path style="opacity:0.027" fill="#2d2d2d" d="M 112.5,61.5 C 114.104,62.287 114.771,63.6203 114.5,65.5C 113.326,64.4863 112.66,63.153 112.5,61.5 Z"/></g>
<g><path style="opacity:0.004" fill="#171717" d="M 13.5,65.5 C 14.5,65.8333 15.1667,66.5 15.5,67.5C 14.1667,67.5 13.5,66.8333 13.5,65.5 Z"/></g>
<g><path style="opacity:0.008" fill="#262626" d="M 15.5,67.5 C 16.5,67.8333 17.1667,68.5 17.5,69.5C 16.1667,69.5 15.5,68.8333 15.5,67.5 Z"/></g>
<g><path style="opacity:0.776" fill="#7d7d7d" d="M 17.5,69.5 C 19.3435,71.2789 20.0102,73.6122 19.5,76.5C 18.7321,74.2854 18.0654,71.9521 17.5,69.5 Z"/></g>
<g><path style="opacity:0.306" fill="#555555" d="M 37.5,67.5 C 38.6118,69.5994 39.2785,71.9327 39.5,74.5C 37.8372,72.5615 37.1706,70.2282 37.5,67.5 Z"/></g>
<g><path style="opacity:0.427" fill="#5e5e5e" d="M 44.5,68.5 C 44.4519,71.3128 43.7853,73.9795 42.5,76.5C 40.6043,77.6394 39.6043,76.9728 39.5,74.5C 40.397,75.5981 41.2303,75.5981 42,74.5C 42.5662,72.2774 43.3995,70.2774 44.5,68.5 Z"/></g>
<g><path style="opacity:0.196" fill="#363636" d="M 134.5,88.5 C 134.702,84.1547 133.369,83.488 130.5,86.5C 132.155,81.632 133.822,81.4653 135.5,86C 135.472,87.0698 135.139,87.9032 134.5,88.5 Z"/></g>
<g><path style="opacity:0.176" fill="#676767" d="M 117.5,76.5 C 118.903,79.9085 119.57,83.5752 119.5,87.5C 118.097,84.0915 117.43,80.4248 117.5,76.5 Z"/></g>
<g><path style="opacity:0.122" fill="#2d2d2d" d="M 20.5,81.5 C 22.0198,83.8902 23.0198,86.5568 23.5,89.5C 21.4152,87.3155 20.4152,84.6489 20.5,81.5 Z"/></g>
<g><path style="opacity:0.384" fill="#757575" d="M 129.5,88.5 C 129.027,89.9063 128.027,90.573 126.5,90.5C 126.973,89.0937 127.973,88.427 129.5,88.5 Z"/></g>
<g><path style="opacity:0.141" fill="#444444" d="M 134.5,88.5 C 134.598,90.5529 133.931,92.2196 132.5,93.5C 132.402,91.4471 133.069,89.7804 134.5,88.5 Z"/></g>
<g><path style="opacity:0.835" fill="#727272" d="M 119.5,87.5 C 120.163,89.0419 120.83,90.7086 121.5,92.5C 122.85,91.0499 124.516,90.3832 126.5,90.5C 124.815,92.8176 122.481,93.8176 119.5,93.5C 119.5,91.5 119.5,89.5 119.5,87.5 Z"/></g>
<g><path style="opacity:0.004" fill="#1c1c1c" d="M 128.5,98.5 C 127.7,100.741 126.034,101.741 123.5,101.5C 124.965,100.263 126.632,99.2632 128.5,98.5 Z"/></g>
<g><path style="opacity:0.004" fill="#0e0e0e" d="M 28.5,99.5 C 29.5,99.8333 30.1667,100.5 30.5,101.5C 29.1667,101.5 28.5,100.833 28.5,99.5 Z"/></g>
<g><path style="opacity:0.663" fill="#727272" d="M 33.5,103.5 C 37.3576,103.77 40.691,105.103 43.5,107.5C 42.1266,107.657 40.7932,107.49 39.5,107C 37.3819,105.918 35.3819,104.751 33.5,103.5 Z"/></g>
<g><path style="opacity:0.478" fill="#828282" d="M 121.5,101.5 C 120.993,104.431 119.993,107.098 118.5,109.5C 118.307,106.189 119.307,103.522 121.5,101.5 Z"/></g>
<g><path style="opacity:0.012" fill="#222222" d="M 67.5,113.5 C 67.1667,115.833 65.8333,117.167 63.5,117.5C 64.5,115.833 65.8333,114.5 67.5,113.5 Z"/></g>
<g><path style="opacity:0.576" fill="#616161" d="M 54.5,115.5 C 57.1625,117.268 60.1625,117.935 63.5,117.5C 61.0336,118.634 58.367,118.801 55.5,118C 54.7476,117.329 54.4142,116.496 54.5,115.5 Z"/></g>
<g><path style="opacity:0.088" fill="#1d1d1d" d="M 95.5,118.5 C 97.8784,120.757 100.545,121.09 103.5,119.5C 102.688,120.993 101.355,121.66 99.5,121.5C 97.0182,121.89 95.6848,120.89 95.5,118.5 Z"/></g>
</svg>
